# xmcd
#
# Track frame offsets:
#	150
#	11920
#	18058
#	31569
#	45919
#	57807
#	78148
#
# Disc length: 1399 seconds
#
# Revision: 1
# Processed by: cddbd v1.5.1PL0 Copyright (c) Steve Scherf et al.
# Submitted via: audiograbber 1.81.03
#
DISCID=39057507
DTITLE=Proffessor Undressor]p[Hot Toddy - Salt And Vinegar The Remix EP
DYEAR=2004
DGENRE=Folk-Rock
TTITLE0=Woodpile
TTITLE1=You Can Only Do What You Can Do
TTITLE2=60 Min Man
TTITLE3=Dusty
TTITLE4=Junkyard Man
TTITLE5=Monty
TTITLE6=3 Daisies
EXTD=
EXTT0=
EXTT1=
EXTT2=
EXTT3=
EXTT4=
EXTT5=
EXTT6=
PLAYORDER=
